# xmcd
#
# Track frame offsets:
#	150
#	20391
#	45954
#	61890
#	78761
#	107960
#	141587
#	161924
#	186419
#	214239
#
# Disc length: 3089 seconds
#
# Revision: 0
# Processed by: cddbd v1.5.2PL0 Copyright (c) Steve Scherf et al.
# Submitted via: SynApp - FreeCDDB Version: 2.0
#
DISCID=8b0c0f0a
DTITLE=Neil Young - Prairie Wind
DYEAR=2005
DGENRE=Folk-Rock
TTITLE0=Neil Young - The Painter
TTITLE1=Neil Young - No Wonder
TTITLE2=Neil Young - Falling Off Of The Face Of The Earth
TTITLE3=Neil Young - Far From Home
TTITLE4=Neil Young - It's A Dream
TTITLE5=Neil Young - Prairie Wind
TTITLE6=Neil Young - Here For You
TTITLE7=Neil Young - This Old Guitar
TTITLE8=Neil Young - He Was The King
TTITLE9=Neil Young - When God Made Me
EXTD=
EXTT0=
EXTT1=
EXTT2=
EXTT3=
EXTT4=
EXTT5=
EXTT6=
EXTT7=
EXTT8=
EXTT9=
PLAYORDER=
